<svg width="40" height="40" viewBox="0 0 40 40" fill="none" xmlns="http://www.w3.org/2000/svg">
<path d="M0 0H9.71193C15.0757 0 19.4238 4.34817 19.4238 9.71192C19.4238 15.0757 15.0757 19.4238 9.71192 19.4238H0V0Z" fill="#FCF5E5"/>
<path d="M0 31.1111C0 25.2928 4.71666 20.5761 10.535 20.5761H19.4238V40H0V31.1111Z" fill="#FCF5E5"/>
<path d="M20.5762 30.288C20.5762 24.9243 24.9243 20.5761 30.2881 20.5761H40V40H30.2881C24.9243 40 20.5762 35.6518 20.5762 30.288Z" fill="#FCF5E5"/>
<path d="M20.5762 0H40V8.88888C40 14.7072 35.2833 19.4238 29.465 19.4238H20.5762V0Z" fill="#FCF5E5"/>
</svg>
